<svg width="28" height="28" viewBox="0 0 28 28" fill="none" xmlns="http://www.w3.org/2000/svg">
<path d="M24.4991 10.3952C24.4408 9.7885 23.9391 9.3335 23.3325 9.3335H4.65413C4.04747 9.3335 3.5458 9.80016 3.48747 10.3952L2.33247 23.2285C2.27413 23.9168 2.8108 24.5002 3.49913 24.5002H24.4875C25.1758 24.5002 25.7125 23.9168 25.6541 23.2285L24.4991 10.3952ZM13.9991 18.6668C10.7791 18.6668 8.1658 16.0535 8.1658 12.8335H10.4991C10.4991 14.7585 12.0741 16.3335 13.9991 16.3335C15.9241 16.3335 17.4991 14.7585 17.4991 12.8335H19.8325C19.8325 16.0535 17.2191 18.6668 13.9991 18.6668Z" fill="#A5D1D0"/>
<path d="M15.1099 7.00016C14.8182 4.38683 12.6132 2.3335 9.91823 2.3335C7.22323 2.3335 5.01823 4.38683 4.72656 7.00016H15.1099Z" fill="#A5D1D0"/>
<path d="M22.2832 3.38316C20.9298 2.02983 18.5615 2.02983 17.2082 3.38316L16.5898 4.0015C17.0332 4.82983 17.3248 5.7515 17.4415 6.7315L17.4765 6.98816H23.1698C23.2748 6.63816 23.3448 6.28816 23.3448 5.91483C23.3448 4.95816 22.9715 4.04816 22.2948 3.3715L22.2832 3.38316Z" fill="#A5D1D0"/>
</svg>
