<svg width="28" height="28" viewBox="0 0 28 28" fill="none" xmlns="http://www.w3.org/2000/svg">
<path d="M14.9401 1.97303C14.7607 1.62303 14.3976 1.3999 14.0038 1.3999C13.6101 1.3999 13.247 1.62303 13.0676 1.97303L9.84758 8.28178L2.85195 9.39303C2.46258 9.45428 2.13883 9.7299 2.01633 10.1062C1.89383 10.4824 1.99445 10.8937 2.27008 11.1737L7.27508 16.183L6.17258 23.1787C6.11133 23.568 6.2732 23.9618 6.59258 24.1937C6.91195 24.4255 7.33195 24.4605 7.68633 24.2812L14.0038 21.0699L20.317 24.2812C20.667 24.4605 21.0913 24.4255 21.4107 24.1937C21.7301 23.9618 21.892 23.5724 21.8307 23.1787L20.7238 16.183L25.7288 11.1737C26.0088 10.8937 26.1051 10.4824 25.9826 10.1062C25.8601 9.7299 25.5407 9.45428 25.147 9.39303L18.1557 8.28178L14.9401 1.97303Z" fill="#A5D1D0"/>
</svg>
