<svg width="28" height="28" viewBox="0 0 28 28" fill="none" xmlns="http://www.w3.org/2000/svg">
<path d="M24.8683 8.59668C24.6714 9.05605 24.0633 9.02543 23.7789 8.61418C22.5627 6.86418 20.887 5.45543 18.9227 4.56293C18.4677 4.3573 18.3233 3.7623 18.7433 3.48668C19.3995 3.05355 20.187 2.7998 21.0314 2.7998C23.3327 2.7998 25.1964 4.66355 25.1964 6.9648C25.1964 7.5423 25.0783 8.09355 24.8639 8.59668H24.8683ZM4.22266 8.61418C3.93828 9.02543 3.32578 9.05605 3.13328 8.59668C2.91891 8.09355 2.80078 7.5423 2.80078 6.9648C2.80078 4.66355 4.66453 2.7998 6.96578 2.7998C7.81016 2.7998 8.59766 3.05355 9.25391 3.48668C9.67391 3.7623 9.52953 4.3573 9.07453 4.56293C7.11453 5.45543 5.43891 6.86418 4.21828 8.61418H4.22266ZM19.872 23.2486C18.2358 24.4736 16.2014 25.1998 14.0008 25.1998C11.8002 25.1998 9.76578 24.4736 8.13391 23.2486L6.58953 24.7886C6.04266 25.3354 5.15453 25.3354 4.60766 24.7886C4.06078 24.2417 4.06078 23.3536 4.60766 22.8067L6.14766 21.2667C4.92703 19.6348 4.20078 17.6004 4.20078 15.3998C4.20078 9.98793 8.58891 5.5998 14.0008 5.5998C19.4127 5.5998 23.8008 9.98793 23.8008 15.3998C23.8008 17.6004 23.0745 19.6348 21.8495 21.2711L23.3895 22.8111C23.9364 23.3579 23.9364 24.2461 23.3895 24.7929C22.8427 25.3398 21.9545 25.3398 21.4077 24.7929L19.8677 23.2529L19.872 23.2486ZM15.0508 10.8498C15.0508 10.2679 14.5827 9.7998 14.0008 9.7998C13.4189 9.7998 12.9508 10.2679 12.9508 10.8498V15.3998C12.9508 15.6798 13.0602 15.9467 13.257 16.1436L15.707 18.5936C16.1183 19.0048 16.7833 19.0048 17.1902 18.5936C17.597 18.1823 17.6014 17.5173 17.1902 17.1104L15.0464 14.9667V10.8498H15.0508Z" fill="#A5D1D0"/>
</svg>
